# File created by Blade
# Date/Time:  Tue Sep 30 19:35:54 2014
#---------------------------------------------------------
:version 1.10
:name HOM
:units
  mass 1.0
  length 1.000000
  angle deg
:documentation
     Acclaim Skeleton File
:root
   axis xyz
   order TX TY TZ RX RY RZ
   position 0.000000 0.000000 0.000000
   orientation 0 0 0
:bonedata
   begin
      id 1
      name Spine_dum
      direction 0.000000 1.000000 0.000000
      length 3.241213
      axis 0.0 0.0 0.0 xyz
   end
   begin
      id 2
      name LeftUpLeg_dum
      direction 1.000000 0.000000 0.000000
      length 3.434019
      axis 0.0 0.0 0.0 xyz
   end
   begin
      id 3
      name RightUpLeg_dum
      direction -1.000000 0.000000 0.000000
      length 3.434019
      axis 0.0 0.0 0.0 xyz
   end
   begin
      id 4
      name Spine
      direction 0.000000 1.000000 0.000000
      length 0.000000
      axis 0.0 0.0 0.0 xyz
      dof rx ry rz
   end
   begin
      id 5
      name Spine_dum1
      direction 0.000000 1.000000 0.000000
      length 18.382958
      axis 0.0 0.0 0.0 xyz
   end
   begin
      id 6
      name Spine_dum2
      direction 0.000000 1.000000 0.000000
      length 12.828261
      axis 0.0 0.0 0.0 xyz
   end
   begin
      id 7
      name Spine_dum3
      direction 0.000000 1.000000 0.000000
      length 12.828261
      axis 0.0 0.0 0.0 xyz
   end
   begin
      id 8
      name Head
      direction 0.000000 1.000000 0.000000
      length 4.527550
      axis 0.0 0.0 0.0 xyz
      dof rx ry rz
   end
   begin
      id 9
      name LeftShoulder
      direction 1.000000 0.000000 0.000000
      length 7.748055
      axis 0.0 0.0 -90.0 xyz
      dof rx ry rz
   end
   begin
      id 10
      name LeftArm
      direction 1.000000 0.000000 0.000000
      length 10.635614
      axis 0.0 0.0 -90.0 xyz
      dof rx ry rz
   end
   begin
      id 11
      name LeftForeArm
      direction 1.000000 0.000000 0.000000
      length 8.346755
      axis 0.0 0.0 -90.0 xyz
      dof ry rz rx
   end
   begin
      id 12
      name LeftHand
      direction 0.000000 0.000000 0.000000
      length 0.000000
      axis 0.0 0.0 -90.0 xyz
      dof rx ry rz
   end
   begin
      id 13
      name LeftHand_dum1
      direction 0.000000 0.000000 0.000000
      length 0.000000
      axis 0.0 0.0 -90.0 xyz
   end
   begin
      id 14
      name LeftHand_dum2
      direction 1.000000 0.000000 0.000000
      length 3.937000
      axis 0.0 0.0 -90.0 xyz
   end
   begin
      id 15
      name LeftHandThumb1
      direction 0.000000 0.000000 1.000000
      length 3.937000
      axis 0.0 0.0 -90.0 xyz
      dof rx rz ry
   end
   begin
      id 16
      name RightShoulder
      direction -1.000000 0.000000 0.000000
      length 7.748055
      axis 0.0 0.0 90.0 xyz
      dof rx ry rz
   end
   begin
      id 17
      name RightArm
      direction -1.000000 0.000000 0.000000
      length 10.635614
      axis 0.0 0.0 90.0 xyz
      dof rx ry rz
   end
   begin
      id 18
      name RightForeArm
      direction -1.000000 0.000000 0.000000
      length 8.346755
      axis 0.0 0.0 90.0 xyz
      dof ry rz rx
   end
   begin
      id 19
      name RightHand
      direction 0.000000 0.000000 0.000000
      length 0.000000
      axis 0.0 0.0 90.0 xyz
      dof rx ry rz
   end
   begin
      id 20
      name RightHand_dum1
      direction 0.000000 0.000000 0.000000
      length 0.000000
      axis 0.0 0.0 90.0 xyz
   end
   begin
      id 21
      name RightHand_dum2
      direction -1.000000 0.000000 0.000000
      length 3.937000
      axis 0.0 0.0 90.0 xyz
   end
   begin
      id 22
      name RightHandThumb1
      direction 0.000000 0.000000 1.000000
      length 3.937000
      axis 0.0 0.0 90.0 xyz
      dof rx rz ry
   end
   begin
      id 23
      name LeftUpLeg
      direction 0.000000 -1.000000 0.000000
      length 15.713025
      axis 0.0 0.0 0.0 xyz
      dof rx ry rz
   end
   begin
      id 24
      name LeftLeg
      direction 0.000000 -1.000000 0.000000
      length 14.435119
      axis 0.0 0.0 0.0 xyz
      dof rx ry rz
   end
   begin
      id 25
      name LeftFoot
      direction 0.000000 -0.258819 0.965926
      length 4.938895
      axis 15.0 0.0 0.0 xyz
      dof rx ry rz
   end
   begin
      id 26
      name LeftToeBase
      direction 0.000000 0.000000 1.000000
      length 2.952750
      axis 0.0 0.0 0.0 xyz
      dof rx ry rz
   end
   begin
      id 27
      name RightUpLeg
      direction 0.000000 -1.000000 0.000000
      length 15.713025
      axis 0.0 0.0 0.0 xyz
      dof rx ry rz
   end
   begin
      id 28
      name RightLeg
      direction 0.000000 -1.000000 0.000000
      length 14.435119
      axis 0.0 0.0 0.0 xyz
      dof rx ry rz
   end
   begin
      id 29
      name RightFoot
      direction 0.000000 -0.258819 0.965926
      length 4.938895
      axis 15.0 0.0 0.0 xyz
      dof rx ry rz
   end
   begin
      id 30
      name RightToeBase
      direction 0.000000 0.000000 1.000000
      length 2.952750
      axis 0.0 0.0 0.0 xyz
      dof rx ry rz
   end
:hierarchy
   begin
      root Spine_dum LeftUpLeg_dum RightUpLeg_dum
      Spine_dum Spine
      LeftUpLeg_dum LeftUpLeg
      RightUpLeg_dum RightUpLeg
      Spine Spine_dum1 Spine_dum2 Spine_dum3
      Spine_dum1 Head
      Spine_dum2 LeftShoulder
      Spine_dum3 RightShoulder
      LeftShoulder LeftArm
      LeftArm LeftForeArm
      LeftForeArm LeftHand
      LeftHand LeftHand_dum1 LeftHand_dum2
      LeftHand_dum1 LeftHandThumb1
      RightShoulder RightArm
      RightArm RightForeArm
      RightForeArm RightHand
      RightHand RightHand_dum1 RightHand_dum2
      RightHand_dum1 RightHandThumb1
      LeftUpLeg LeftLeg
      LeftLeg LeftFoot
      LeftFoot LeftToeBase
      RightUpLeg RightLeg
      RightLeg RightFoot
      RightFoot RightToeBase
   end

# File created by Blade
# Date/Time:  Tue Sep 23 19:15:59 2014
# Frame Rate: 120.000 fps
#------------------------------------------------------
:FULLY-SPECIFIED
:DEGREES
1079
root -0.290995 34.335710 -5.838957 44.629259 -8.058907 -47.267693
Spine -29.005260 -10.847340 41.475716
Head 2.014269 -10.746555 21.236844
LeftShoulder 7.881007 29.330241 39.125013
LeftArm 97.495168 13.335854 -53.724468
LeftForeArm 16.475736 -0.000000 35.740588
LeftHand 52.888253 -0.000000 -13.606326
LeftHandThumb1 -26.253704 0.000000 33.147579
RightShoulder -3.954040 -49.967948 -1.212581
RightArm 58.743271 9.633913 52.216154
RightForeArm 17.432498 -0.000000 46.699767
RightHand 7.149687 -0.000000 20.954766
RightHandThumb1 -24.326973 -0.000000 -32.862282
LeftUpLeg -41.699498 27.108540 34.053243
LeftLeg 27.383172 -0.000000 -0.000000
LeftFoot -13.644662 11.499973 1.041089
LeftToeBase -3.542405 -0.000000 0.000000
RightUpLeg -128.387000 -39.559721 3.874375
RightLeg 132.406125 -0.000000 -0.000000
RightFoot 41.801538 3.560060 -2.216831
RightToeBase 45.498661 -0.000000 -0.000000
1080
root -0.257278 34.327274 -5.811403 44.700502 -8.443233 -47.159787
Spine -29.040001 -10.705656 41.250979
Head 2.304401 -10.807421 20.917677
LeftShoulder 7.851313 29.273529 39.108035
LeftArm 97.329718 13.444668 -53.968757
LeftForeArm 17.470284 -0.000000 36.945806
LeftHand 52.639084 -0.000000 -12.914171
LeftHandThumb1 -26.253704 0.000000 33.147579
RightShoulder -3.680349 -49.990110 -1.501081
RightArm 59.000778 9.464088 51.691627
RightForeArm 18.477378 -0.000000 45.595348
RightHand 7.851990 -0.000000 21.047425
RightHandThumb1 -24.326973 -0.000000 -32.862282
LeftUpLeg -41.599178 27.225658 33.681988
LeftLeg 27.418886 -0.000000 -0.000000
LeftFoot -13.911393 11.592994 0.663405
LeftToeBase -3.263335 -0.000000 0.000000
RightUpLeg -129.424305 -39.439444 4.991140
RightLeg 132.102535 -0.000000 -0.000000
RightFoot 41.887715 3.537115 -2.178310
RightToeBase 45.410851 -0.000000 -0.000000
1081
root -0.219778 34.317899 -5.780622 44.819892 -8.894340 -47.021431
Spine -29.123437 -10.512060 40.980557
Head 2.643031 -10.842645 20.567486
LeftShoulder 7.855020 29.255771 39.103730
LeftArm 97.139398 13.549077 -54.277170
LeftForeArm 17.779470 0.000000 38.150692
LeftHand 52.560197 -0.000000 -13.210540
LeftHandThumb1 -26.253704 0.000000 33.147579
RightShoulder -3.460378 -49.970938 -1.732268
RightArm 59.224670 9.287386 51.037917
RightForeArm 19.518829 -0.000000 44.589661
RightHand 8.328467 -0.000000 21.135371
RightHandThumb1 -24.326973 -0.000000 -32.862282
LeftUpLeg -41.494104 27.336717 33.254934
LeftLeg 27.416087 -0.000000 -0.000000
LeftFoot -14.076621 11.636459 0.240542
LeftToeBase -3.387429 -0.000000 0.000000
RightUpLeg -130.589730 -39.230167 6.170392
RightLeg 131.748678 -0.000000 -0.000000
RightFoot 42.183282 3.154343 -2.114634
RightToeBase 45.270471 -0.000000 -0.000000
1082
root -0.183140 34.308786 -5.751011 44.895191 -9.322520 -46.882749
Spine -29.182988 -10.387186 40.737866
Head 2.995420 -10.858906 20.221231
LeftShoulder 7.819187 29.267689 39.056000
LeftArm 97.019300 13.608570 -54.494092
LeftForeArm 19.047852 -0.000000 39.364471
LeftHand 52.266515 -0.000000 -12.567019
LeftHandThumb1 -26.253704 0.000000 33.147579
RightShoulder -3.206464 -49.784224 -2.010116
RightArm 59.350750 8.983461 50.366485
RightForeArm 20.453109 -0.000000 43.632697
RightHand 8.762967 -0.000000 21.112554
RightHandThumb1 -24.326973 -0.000000 -32.862282
LeftUpLeg -41.375710 27.415351 32.849500
LeftLeg 27.406405 -0.000000 -0.000000
LeftFoot -14.081485 11.844413 0.168991
LeftToeBase -3.826763 -0.000000 0.000000
RightUpLeg -131.613540 -39.085304 7.204370
RightLeg 131.443347 -0.000000 -0.000000
RightFoot 42.249992 3.155157 -1.937043
RightToeBase 45.217874 -0.000000 -0.000000
1083
root -0.145578 34.300541 -5.715012 45.019889 -9.784168 -46.754819
Spine -29.302585 -10.198270 40.509694
Head 3.434580 -10.865383 19.801337
LeftShoulder 7.835013 29.251142 39.003853
LeftArm 96.862231 13.694832 -54.691965
LeftForeArm 19.682415 0.000000 40.505548
LeftHand 51.970564 0.000000 -12.131222
LeftHandThumb1 -26.253704 0.000000 33.147579
RightShoulder -2.934228 -49.500750 -2.297126
RightArm 59.364231 8.690027 49.726342
RightForeArm 21.004572 -0.000000 42.745633
RightHand 9.227530 -0.000000 21.387508
RightHandThumb1 -24.326973 -0.000000 -32.862282
LeftUpLeg -41.250917 27.527401 32.444573
LeftLeg 27.419773 -0.000000 -0.000000
LeftFoot -14.374372 11.860620 -0.311378
LeftToeBase -3.519016 -0.000000 0.000000
RightUpLeg -132.656857 -38.872384 8.255869
RightLeg 131.087081 -0.000000 -0.000000
RightFoot 42.324735 3.228059 -1.795270
RightToeBase 45.337791 -0.000000 -0.000000
1084
root -0.108928 34.294873 -5.686263 45.210692 -10.302909 -46.666821
Spine -29.426960 -9.940434 40.253525
Head 3.907871 -10.841104 19.418362
LeftShoulder 7.843133 29.200054 38.957744
LeftArm 96.731747 13.758382 -54.792170
LeftForeArm 20.360064 -0.000000 41.552259
LeftHand 51.822500 -0.000000 -12.017352
LeftHandThumb1 -26.253704 0.000000 33.147579
RightShoulder -2.747448 -49.356537 -2.492964
RightArm 59.513123 8.462035 49.098688
RightForeArm 21.620076 0.000000 42.021375
RightHand 9.461023 0.000000 21.383838
RightHandThumb1 -24.326973 -0.000000 -32.862282
LeftUpLeg -41.154911 27.737304 32.017962
LeftLeg 27.425050 -0.000000 -0.000000
LeftFoot -14.552054 11.919605 -0.644348
LeftToeBase -3.494373 -0.000000 0.000000
RightUpLeg -133.759435 -38.495194 9.313238
RightLeg 130.696891 -0.000000 -0.000000
RightFoot 42.407508 3.051471 -1.563865
RightToeBase 45.412512 -0.000000 -0.000000
1085
root -0.072447 34.288208 -5.654433 45.328709 -10.834415 -46.538128
Spine -29.523405 -9.785834 39.979883
Head 4.409833 -10.783193 19.037945
LeftShoulder 7.791488 29.301482 38.845634
LeftArm 96.771670 13.720702 -54.759539
LeftForeArm 20.981234 0.000000 42.450082
LeftHand 51.656317 -0.000000 -11.578228
LeftHandThumb1 -26.253704 0.000000 33.147579
RightShoulder -2.521575 -49.072598 -2.712018
RightArm 59.559444 8.182038 48.508642
RightForeArm 22.183310 0.000000 41.412564
RightHand 9.752875 0.000000 21.560178
RightHandThumb1 -24.326973 -0.000000 -32.862282
LeftUpLeg -40.987068 27.880995 31.577404
LeftLeg 27.397226 -0.000000 -0.000000
LeftFoot -14.693665 11.999371 -0.936589
LeftToeBase -3.475862 -0.000000 0.000000
RightUpLeg -134.804074 -38.118698 10.307857
RightLeg 130.281907 -0.000000 -0.000000
RightFoot 42.532564 2.833794 -1.367028
RightToeBase 45.434965 -0.000000 -0.000000
